PathFileType	4	(X/Y/Z)	D:\TRACE\spotREDO_2-26-24\spot_justBody_Motion_3_3-platform.trc
DataRate	CameraRate	NumFrames	NumMarkers	Units	OrigDataRate	OrigDataStartFrame	OrigNumFrames
100.00	100.00	      43	5	mm	100.00	2626	      7000
Frame#	Time	Left_Front			Right_Front			Left_Aft			Right_Aft			Post			
		X1	Y1	Z1	X2	Y2	Z2	X3	Y3	Z3	X4	Y4	Z4	X5	Y5	Z5	

2626	26.250	-713.35425	24.62959	-567.73309	701.60547	29.49866	-483.15411	-784.23785	-25.60951	650.20807	786.14252	-18.38628	653.73486	-3.84399	670.63885	-943.51196	
2627	26.260	-713.00153	24.09582	-567.92468	701.92255	28.54353	-483.24457	-783.97687	-24.81563	649.97430	786.05640	-17.57215	653.63110	-3.59861	669.24908	-944.83862	
2628	26.270	-712.62848	22.94039	-568.22565	702.20007	28.03938	-483.63599	-783.59723	-23.55964	649.88550	786.58618	-16.65587	653.48822	-3.24659	667.82874	-946.20789	
2629	26.280	-712.32520	21.97770	-568.38177	702.58649	26.93143	-483.83875	-783.16327	-22.69686	649.64880	787.00739	-15.75149	652.90198	-3.15138	666.37506	-947.39734	
2630	26.290	-712.10474	21.28799	-568.74799	702.97565	26.53265	-484.12595	-782.84460	-22.13368	649.39685	787.25500	-15.07575	652.74329	-2.73569	665.01282	-948.47900	
2631	26.300	-711.56622	20.16759	-569.05756	703.44385	25.53874	-484.35620	-782.58252	-20.91446	649.10065	787.82361	-13.59012	652.80017	-2.39706	663.32794	-949.86206	
2632	26.310	-711.34747	19.37226	-569.28418	703.77435	24.90326	-484.73929	-782.28564	-19.93472	648.88879	787.92896	-12.77624	652.79889	-1.83521	661.86682	-951.00647	
2633	26.320	-710.99762	18.51389	-569.57831	704.23798	23.96139	-484.90494	-781.80878	-19.16943	648.81842	788.23657	-11.84925	652.42255	-1.37584	660.43829	-952.64459	
2634	26.330	-710.40137	17.53620	-569.94373	704.48151	23.35968	-485.34000	-781.58966	-18.10242	648.58649	788.73138	-10.79964	652.38910	-0.83026	658.93860	-953.43500	
2635	26.340	-710.09888	16.64622	-570.15149	704.69879	22.32245	-485.45483	-781.34216	-16.99770	648.27020	789.10590	-9.89148	651.95587	-0.89611	657.43207	-954.88257	
2636	26.350	-709.89209	15.81359	-570.36389	705.09412	21.64078	-485.88162	-780.97583	-16.32095	648.15381	789.41492	-8.76777	651.80328	-0.45569	655.86292	-956.13074	
2637	26.360	-709.61029	14.70446	-570.56763	705.53931	20.89557	-486.05066	-780.52472	-15.22567	647.81494	789.72333	-7.91452	651.56165	-0.38919	654.40289	-957.32458	
2638	26.370	-709.06732	13.95827	-570.79523	705.96075	20.21595	-486.26804	-779.95056	-14.18588	647.72205	790.76099	-6.42973	651.44476	0.56893	652.91675	-958.45007	
2639	26.380	-708.72668	13.15273	-571.03790	706.27612	19.36015	-486.46448	-779.65680	-13.13000	647.52722	790.62524	-6.32430	651.07318	0.83651	651.18829	-959.89478	
2640	26.390	-708.58081	12.16658	-571.42285	706.69757	18.49810	-486.77347	-779.39044	-12.34590	647.07990	790.87311	-5.18903	650.69147	1.17227	649.80353	-961.02319	
2641	26.400	-708.19666	11.15631	-571.54608	706.97430	17.57386	-486.96869	-778.82233	-11.54272	646.94165	791.15851	-4.18142	650.62897	1.40259	648.38263	-962.40063	
2642	26.410	-707.68762	10.17213	-571.94690	707.27960	17.11281	-487.28366	-778.90814	-10.53560	646.63733	790.96765	-3.13753	650.43475	1.68431	646.83649	-963.59125	
2643	26.420	-707.54315	9.54591	-572.11237	707.82434	16.32512	-487.41599	-778.59479	-9.38944	646.45447	791.74811	-2.03401	650.38940	2.07473	645.28979	-964.93018	
2644	26.430	-707.12213	8.39209	-572.38483	708.12585	15.45135	-487.75143	-778.39453	-8.60561	646.28320	792.21710	-1.01622	650.06927	2.35681	643.68866	-966.03967	
2645	26.440	-706.72260	7.47051	-572.68054	708.22028	14.59475	-488.20114	-777.94049	-7.34245	646.18854	792.24481	-0.26912	649.78662	2.76734	642.35278	-967.35339	
2646	26.450	-706.55707	6.91710	-572.98688	708.60162	13.86701	-488.34946	-777.66846	-6.50827	645.85492	792.66785	0.86665	649.56104	3.23043	640.80780	-968.54156	
2647	26.460	-706.05011	5.54341	-573.36279	708.76202	13.30903	-488.70770	-777.06750	-5.81239	645.65729	793.10309	1.79551	649.37634	3.34261	639.11829	-969.66730	
2648	26.470	-705.89575	4.91234	-573.40039	709.02838	12.67470	-488.94897	-776.91846	-4.76345	645.52881	793.27972	2.49856	649.03943	3.54319	637.65540	-971.06805	
2649	26.480	-705.29962	3.80049	-573.64697	709.33868	11.50368	-489.20041	-776.62390	-3.80494	645.15332	793.67957	3.55393	648.65765	4.17733	636.34412	-971.78827	
2650	26.490	-704.95825	3.00116	-573.87488	709.70789	10.59658	-489.17844	-776.15924	-2.78811	645.18066	793.99036	4.22796	648.50464	4.23466	634.74719	-973.46466	
2651	26.500	-704.87573	2.35436	-574.13892	710.10193	9.92798	-489.47018	-776.22034	-1.92262	644.74377	794.05151	5.38653	648.43982	4.54869	633.28821	-974.38135	
2652	26.510	-704.73193	1.19004	-574.30566	710.37402	9.59829	-489.81635	-775.97253	-1.13759	644.54773	794.53119	6.29440	648.30347	4.74880	631.74475	-975.82904	
2653	26.520	-704.46252	0.32957	-574.40771	710.87457	8.55037	-489.91541	-775.50647	-0.07449	644.37701	794.57904	7.28163	648.00421	5.57238	630.54498	-976.48645	
2654	26.530	-704.07172	-0.37253	-574.60333	711.15045	7.76920	-489.89706	-775.39478	0.76322	644.05420	794.90778	8.15736	647.78430	5.40683	628.96545	-977.98779	
2655	26.540	-703.59985	-1.42659	-574.93103	711.16119	6.87687	-490.32703	-774.93085	1.46073	643.75281	794.97174	9.01155	647.60046	5.63390	627.55853	-978.96326	
2656	26.550	-703.60791	-2.00954	-575.19855	711.31891	6.35361	-490.63123	-774.77765	2.51293	643.58856	795.32001	9.82969	647.25421	5.76628	626.31549	-980.12024	
2657	26.560	-703.57330	-2.79888	-575.59485	711.51215	5.55891	-490.75378	-774.86151	3.54355	643.17316	795.61591	10.76556	647.15851	6.07092	624.74481	-981.30164	
2658	26.570	-703.24365	-3.95616	-575.79498	711.54852	5.20620	-491.22964	-774.40204	4.35475	643.02753	795.72516	11.56921	646.55347	6.38240	623.43585	-982.29254	
2659	26.580	-703.20770	-4.61227	-575.93945	711.61743	4.22105	-491.42542	-774.21442	4.91338	642.89221	795.77991	11.91168	646.29565	6.31945	622.05969	-983.16431	
2660	26.590	-703.01868	-5.14566	-576.20081	711.76978	3.67061	-491.57693	-774.24396	5.61133	642.70129	796.03662	13.14243	646.40887	6.56561	620.63141	-984.16791	
2661	26.600	-702.80768	-5.99397	-576.27344	711.99890	2.89494	-491.67883	-774.07257	6.75310	642.44470	796.24835	14.18708	646.30261	6.44327	619.42938	-985.27167	
2662	26.610	-702.67548	-6.98393	-576.56848	712.17780	2.20388	-491.88409	-773.85144	7.33019	642.44379	796.37366	14.88734	646.10620	6.84507	618.19098	-986.42065	
2663	26.620	-702.46149	-7.60760	-576.58258	712.35431	1.79686	-492.11060	-773.84686	8.12348	642.23511	796.47650	15.61917	645.78656	6.99711	616.85052	-987.23584	
2664	26.630	-702.28394	-8.49997	-576.69702	712.42065	0.72593	-492.31241	-773.64398	9.13825	642.07617	796.77972	16.38445	645.56921	6.93773	615.39203	-988.44928	
2665	26.640	-701.87048	-9.30033	-576.82648	712.69647	0.35357	-492.47684	-773.54681	9.80635	641.80133	796.54938	17.14313	645.31366	7.34250	614.20502	-989.01086	
2666	26.650	-702.05963	-9.84325	-577.09064	712.61145	-0.25509	-492.82166	-773.40204	10.52546	641.63635	796.97107	17.99292	645.11432	7.27291	612.93188	-990.10803	
2667	26.660	-702.03156	-10.43327	-577.35345	712.96204	-0.93502	-492.76056	-773.33148	11.19028	641.30762	797.24420	19.01730	645.30090	7.65422	611.96149	-991.21405	
2668	26.670	-701.92487	-11.38048	-577.56256	712.99341	-1.51726	-493.06287	-773.32910	11.93161	641.05200	796.93610	19.13464	644.64746	7.55721	610.64398	-991.93225	
